<svg xmlns="http://www.w3.org/2000/svg" xmlns:xlink="http://www.w3.org/1999/xlink" width="750" height="500" viewBox="0 0 750 500"><defs><style>.a{fill:none;}.b{fill:#008f71;}.c{fill:#fff;font-size:20px;font-family:Montserrat-SemiBold, Montserrat;font-weight:600;}.d{fill:#d1b2e0;}.e{fill:#609;}.f{fill:#90bdf4;}.g{clip-path:url(#a);}.aa,.ab,.ae,.h,.i,.s{fill:#9c6666;}.ae,.i,.r,.x{opacity:0.3;}.aa,.ab,.ad,.i,.r,.s,.u{mix-blend-mode:multiply;isolation:isolate;}.j{fill:#2d2433;}.k{fill:#dedede;}.l{fill:#d7a290;}.m,.n,.x{fill:#a34b5f;}.aa,.ad,.m{opacity:0.5;}.o{fill:#dd6b8e;}.p,.u{opacity:0.2;}.q{fill:#6c3941;}.t{fill:#7268a5;}.v{fill:#62344a;}.w{fill:#f1cebc;}.y{opacity:0.15;}.z{fill:#eebf5b;}.ab{opacity:0.4;}.ac{fill:#dd6b7d;}.af{opacity:0.1;}.ag{fill:#707070;font-size:12px;font-family:Montserrat-Bold, Montserrat;font-weight:700;}</style><clipPath id="a"><rect class="a" width="750" height="500"/></clipPath></defs><g transform="translate(-308 -938)"><g transform="translate(-77 -105)"><g transform="translate(385 1043)"><path class="b" d="M516.031,140.047s9.87-21.472-16.857-24.909c-27.107,1.165-99.7,6.142-106.826-22.467-7.25-29.12,9.774-37.151,30.613-37.295,28.221-.195,86.355-3.651,96.366,16.539,4.927,9.937,2.023,34.625-5.9,38.829C524.813,117.695,521.595,131.332,516.031,140.047Z"/><text class="c" transform="translate(457.571 90.902)"><tspan x="-30.57" y="0">Esusu</tspan></text></g><g transform="translate(385 1043)"><path class="d" d="M577.96,137.055s-13.381-13.291,1.511-30.967c23.867,4.237,81.339,13.514,88.593-1.686s7.057-34.52-1.255-41.15-85.843-13.6-95.565-.215-8.449,32.137-1.916,36.99C561.91,126.357,569.027,127.722,577.96,137.055Z"/><text class="c" transform="translate(619.905 90.847)"><tspan x="-39.09" y="0">Paadna</tspan></text></g><g transform="translate(385 1043)"><path class="e" d="M252.481,134.824s-8.471-12.552,5.354-23.693c21.509.656,88.875,3.458,92.644-13.206s-.765-38.662-9.121-44.162-91.295-3.09-97.521,12.1-1.968,34.172,4.539,38.129C243.615,120.151,242.3,127.723,252.481,134.824Z"/><text class="c" transform="translate(297.28 89.21)"><tspan x="-38.65" y="0">Adashe</tspan></text></g><g transform="translate(385 1043)"><path class="f" d="M182.16,133.655s4.8-10.1-5.733-21.133c-23.8,2.343-94.585,13.6-95.988-16.5C79.022,65.668,82.685,62.7,103.86,58.315c24.32-5.034,80.764-12.536,90,7.758,3.5,7.7,4.3,28.13-.1,38.249-1.308,3.011-6.083,5.566-7.85,5.933C190.21,121.955,187.86,128.355,182.16,133.655Z"/><text class="c" transform="translate(138.714 93.284)"><tspan x="-16.89" y="0">Ajo</tspan></text></g><g transform="translate(385 1043)"><g class="g"><path class="h" d="M184.63,436.385c-5.98,41.55-16.68,62.28-21.11,66.47-4.41,4.18-21.4,3.21-27.37,0a5.042,5.042,0,0,0-2.15-.72,1.7,1.7,0,0,0-.4.04,1.421,1.421,0,0,0-.59.29H133a2.389,2.389,0,0,0-.49.51c-1.31,1.78-1.91,5.9-8.58,6.95-10.13,1.62-23.92.97-27.05-6.43-3.11-7.41-16.09-74.7-9.59-100.79,6.49-26.07,21.6-47.469,21.6-51.25,0-4.933-3.466-15.6-3.466-15.6l64.133-2.133s-3.217,8.09.933,18.4C174.663,362.422,190.6,394.845,184.63,436.385Z"/><path class="i" d="M140.21,434.475c-.31,5.1-1.38,20.81-1.78,25.89-.72,9.02-1.58,18.01-2.6,26.91-.5,4.47-1.03,8.9-1.62,13.33l-.21,1.53a1.7,1.7,0,0,0-.4.04,1.421,1.421,0,0,0-.59.29c.19-1.52.38-3.05.57-4.57,2.19-17.48,4.73-45.76,6-63.59C139.63,433.6,140.26,433.765,140.21,434.475Z"/><path class="i" d="M146.117,355.527a5.445,5.445,0,0,1-.642-2.637,25.506,25.506,0,0,1,.529-2.636c.017-.141-.168-.225-.277-.159a3.269,3.269,0,0,0-1.117,2.8,5.016,5.016,0,0,0,.216,1.55,4.576,4.576,0,0,0,.749,1.4C145.813,356.156,146.318,355.891,146.117,355.527Z"/><path class="j" d="M195.153,211.576a7.935,7.935,0,0,0-2.438-10.712c1.312,1.838,4.474,1.205,5.721-.678s1.065-4.36.565-6.563a27.934,27.934,0,0,0-8.082-14.1c4.27.034,7.661-4.326,7.671-8.6s-2.6-8.172-5.844-10.949a17.678,17.678,0,0,0-10.1-4.508,11.144,11.144,0,0,0-9.845,4.347c-1.959,2.822-2.186,6.471-2.151,9.906a91.31,91.31,0,0,0,6.646,33.222c1.545,3.819,3.944,8.845,7.581,11.158C188.06,216.129,193.156,214.623,195.153,211.576Z"/><path class="j" d="M155.5,139.412A23.361,23.361,0,0,0,119,138.636a17.369,17.369,0,0,0-13.432-1.288,16.56,16.56,0,0,0-9.963,8.764c-8,3.758-12.858,12.888-11.348,21.331.537,3,1.779,6.133.683,8.993-1.207,3.152-4.748,4.728-7.608,6.653-4.368,2.941-7.731,7.589-8.007,12.712s3.1,10.5,8.259,11.787a8.213,8.213,0,0,0,3.855,6.428,9.4,9.4,0,0,0,7.93.535c-3.054,3.351-4.19,10.508.655,14.737,4.2,3.665,11.969,2.514,14.455-.188-.733,2.078-1.758,7.331.586,9.963a4.994,4.994,0,0,0,7.366.209c-.049,4.19,4.5,8.291,11.175,8.083,13.13-.407,27.335-16.984,32.5-51.782S160.828,146.572,155.5,139.412Z"/><path class="h" d="M220.982,435.066a77.507,77.507,0,0,1,2.524,17.89c.024,4.557-1.106,5.19-1.9,2-.755-3.032-1.1-6.551-1.7-6.466-.308.041.423,2.532.374,6.108-.056,4.144-.42,7.331-1.8,6.994s-2.012-8.878-2.6-11.623c-.13-2.748-.266,7.288-1.37,10.99-.957,4.137-3.152,4.569-2.907-.59.124-5.181.044-9.076-.548-10.317-.58,1.157-.63,2.627-1.795,8.449-1.049,4.309-3.238,4-3.126-.262.173-5.14,1.408-12.766-.209-13.372-1.254.111-1.181,2.106-4.152,5.749-3.031,3.645-1.385-2.174-.212-6.589,1.326-4.581.882-9.833,1.265-13.3.551-4.681-.127-6.948,4.31-7.937,2.588-.577,6.564-2.175,9.246.248C218.538,424.982,219.489,430.272,220.982,435.066Z"/><path class="f" d="M160.42,260.546c-11.007,6.256.439,41.83,14.684,92.145,13.817,48.8,25.846,77.214,25.846,77.214s.933,3.136,9.486,2.165,9.466-5.839,9.466-5.839-18.831-51-27.086-87.567-12.219-54.148-14.387-63.1C175.283,262.579,164.374,258.3,160.42,260.546Z"/><path class="k" d="M176.843,302.1c.222,7.487-4.665,18.588-5.369,35.933-5.036,1.539-15.33,6.023-30.459,7.018-14.645.973-31.829-2.734-36.634-3.087-3.307-16.116-11.14-69.091-4.657-77.68,1.086-1.444,22.631-8.418,34.957-8.715,12.481-.3,19.981,2.269,26.268,3.763,6.668,1.585,4.574,2.44,7.788,10.134C172.187,277.715,176.619,294.57,176.843,302.1Z"/><path class="l" d="M152.543,237.344l-.23,1.716-1.351,10.127-1.181,8.864s.41,3.495-6.266,2.158a18.791,18.791,0,0,1-8.679-3.906,1.854,1.854,0,0,1-.63-1.652l1.181-8.822,1.211-9.085.25-1.874Z"/><path class="m" d="M152.313,239.06l-1.351,10.127a15.351,15.351,0,0,1-4.224-.168,49.589,49.589,0,0,1-6.186-1.232,30.2,30.2,0,0,1-5.165-1.958l1.211-9.085Z"/><path class="h" d="M105.889,191.6c2.727,12.064,4.864,23.3,9.622,32.519a45.965,45.965,0,0,0,2.811,4.716c5.611,8.2,14.212,14.306,28.7,17.254.116.021.232.042.358.074.221.042.442.084.674.126,8.916,1.5,21.644-1.358,27.286-5.39a33.445,33.445,0,0,0,3.579-2.948c6.991-6.568,9.664-14.79,10.5-22.454v-.01c1.011-9.138-.6-17.486-.568-21.265,2.947-36.635-12.6-56.373-45.015-55.1C115.806,140.231,100.047,165.706,105.889,191.6Z"/><path class="n" d="M164.469,221.155c-4.4.055-6.714-3.193-9.82-.051-2.475,2.5.517,8.07,9.475,7.738,8.693-.322,9.24-6.413,7.314-8.079S168.9,221.1,164.469,221.155Z"/><path class="o" d="M155.609,223.516a10.809,10.809,0,0,1,6.908,1.789,5.3,5.3,0,0,1,2.6,3.456c-.324.031-.638.068-.988.081-6.2.23-9.541-2.369-10.188-4.821A4.761,4.761,0,0,1,155.609,223.516Z"/><path class="h" d="M114.848,212.651c-.576,4.061-6.134,6.426-11.4,3.748s-10.439-12.583-7.928-18.873,11.21-5.148,15.5,1.107C114.263,203.357,115.3,209.484,114.848,212.651Z"/><path class="m" d="M99.3,200.284a.4.4,0,0,1,.062-.677c1.179-.513,2.679.03,3.807.473a12.748,12.748,0,0,1,3.461,2.022,11.376,11.376,0,0,1,4.087,6.891c.074.5-.686.783-.886.275a14.123,14.123,0,0,0-4.125-6.016c-.263-.212-.551-.386-.829-.575-.076.138-.172.269-.251.4-.142.235-.291.465-.43.7a10.836,10.836,0,0,0-.719,1.5c-.421,1.047-.592,2.182-1.091,3.2-.093.189-.433.273-.517.02a5.375,5.375,0,0,1,.417-3.667,10.85,10.85,0,0,1,.869-1.679,6.162,6.162,0,0,1,.529-.742c.091-.1.181-.21.276-.308a11.54,11.54,0,0,0-1.312-.642C101.571,201.031,100.253,200.944,99.3,200.284Z"/><g class="p"><path class="o" d="M115.511,224.122a45.965,45.965,0,0,0,2.811,4.716c5.611,8.2,14.212,14.306,28.7,17.254.116.021.232.042.358.074,5.822-6.306,5.937-16.528-.158-24.139-6.758-8.453-18.654-10.475-26.528-4.527A16.334,16.334,0,0,0,115.511,224.122Z"/><path class="o" d="M178.916,237.954c6.991-6.568,9.664-14.79,10.5-22.454-3.642,1-7.327,4.316-9.58,9.032C177.506,229.385,177.295,234.481,178.916,237.954Z"/></g><path class="j" d="M147.4,205.657c.166,2.133-.971,3.961-2.539,4.083s-2.974-1.508-3.14-3.641.97-3.961,2.539-4.083S147.236,203.524,147.4,205.657Z"/><path class="j" d="M182.1,202.957c.155,1.993-.908,3.7-2.373,3.815s-2.779-1.409-2.934-3.4.907-3.7,2.373-3.815S181.95,200.964,182.1,202.957Z"/><path class="m" d="M166.9,195.377a.32.32,0,0,1,.611,0,21.573,21.573,0,0,1,.5,3.092c.148.972.324,1.936.564,2.89a26.624,26.624,0,0,0,2.234,5.883,29.846,29.846,0,0,0,1.565,2.626,6.521,6.521,0,0,1,1.291,2.4c.3,1.8-1.238,3.114-2.616,3.944-.35.211-.758-.293-.444-.575a7.872,7.872,0,0,0,1.766-1.962,2.11,2.11,0,0,0-.406-2.421,27.523,27.523,0,0,1-2.9-4.952,28.141,28.141,0,0,1-1.768-5.292A12.6,12.6,0,0,1,166.9,195.377Z"/><path class="q" d="M135.663,191.182c1.786-3.141,3.835-5.353,7.554-6.116a9.449,9.449,0,0,1,3.462.094c.714.157,1.966,1.047.889,1.737a6.351,6.351,0,0,1-3.008.577,11.312,11.312,0,0,0-3.09.747,11.108,11.108,0,0,0-4.912,3.76,4.107,4.107,0,0,1-.656.787C135.07,193.459,135.069,192.228,135.663,191.182Z"/><path class="q" d="M184.69,188.86c-1.926-2.716-3.949-4.544-7.183-4.852a7.3,7.3,0,0,0-2.9.458c-.58.222-1.515,1.18-.515,1.7a5.007,5.007,0,0,0,2.611.212,8.956,8.956,0,0,1,2.7.361,9.855,9.855,0,0,1,4.643,2.954,3.835,3.835,0,0,0,.658.659C185.5,190.906,185.332,189.765,184.69,188.86Z"/><path class="j" d="M114.907,201.937c1.1,2.158,1.326,4.655,2.117,6.943a10.272,10.272,0,0,0,4.161,5.76c2.1,1.21,5.148.982,6.535-1,1.184-1.7.814-4.107-.331-5.828a15.609,15.609,0,0,0-4.642-4.05c6.036-3.884,7.712-13.14,3.421-18.894a32.91,32.91,0,0,0,21.641-28.287c9.962,1.289,14.222,2.734,24.184,4.022,4.014.52,25.248,2.152,21.059-13.586-3.88-14.574-31.061-17.981-42.793-9.5,0,0-17.214-6.913-31.592,6.9S97.268,173.4,102.7,191.4,113.073,198.324,114.907,201.937Z"/><path class="o" d="M155.5,261.3c2.262-3.045,4.44-8.68.493-10.346-1.746-.737-7.719.814-13.445.1-7.217-.9-11.02-3.811-13.528-2.242-3.172,1.985-.165,8.264-.822,9.929S151.884,266.172,155.5,261.3Z"/><path class="h" d="M43.823,278.193c-2.208-5.444-6.817-11.581-10.106-14.97-3.482-3.593-3.031-4.762.855-2.718,3.389,1.859,5.784,4.38,6.332,4.063.264-.149-1.558-2.23-4.515-4.941-3.043-2.785-5.343-4.7-4.4-5.769,1.1-1.213,10.41,5.3,12.1,7.76,2.083,2.188-4.743-7.181-8.025-9.7-3.425-2.979-1.42-4.276,3.656-.87,4.985,3.5,7.875,7.654,9.189,8.512-.217-1.191-.653-2.715-4.326-7.549-2.879-3.464-.815-4.169,2.921-1.1,4.532,3.681,7.463,11.339,9.11,11.4,1.167-.6.4-2.589,1.315-7.049.842-4.417,2.971,1.186,3.3,6.152.45,5.081,1.443,10.924.719,15.437-.934,6.064-3.075,10.379-7.119,11.989C50.5,290.55,48.12,289.247,43.823,278.193Z"/><path class="m" d="M48.435,269.1a1.05,1.05,0,0,1,.483.108,3.975,3.975,0,0,1,.554.236,10.785,10.785,0,0,1,.932.657c.6.461,1.173.967,1.727,1.484s1.078,1.032,1.57,1.59a8.334,8.334,0,0,1,1.391,1.841.446.446,0,0,1-.7.538,16.284,16.284,0,0,1-1.511-1.562c-.519-.536-1.038-1.067-1.588-1.572s-1.1-.954-1.661-1.412c-.281-.228-.563-.455-.837-.691-.142-.122-.228-.272-.356-.4a1.1,1.1,0,0,1-.285-.447A.292.292,0,0,1,48.435,269.1Z"/><path class="f" d="M106.642,263.63c7.961,4.289,11.769,13.177,6.053,28.814C108.153,304.872,93.908,357.862,76.4,357.4c-12.3-.327-30.815-65.3-32.047-73.826,3.507-.529,11.388-.65,18.417-4.6,2.331,5.062,10.941,48.257,14.03,45.662,3.742-3.144,6.941-30.479,13.694-43.99C95.254,271.121,98.681,259.34,106.642,263.63Z"/><path class="b" d="M187.184,421.266a3.348,3.348,0,0,1-1.36,2.495c-14.189,10.227-31.752,8.385-41.026,10.034q-.515.081-1,.193a.573.573,0,0,0-.225.1c-.557.386-.107,1.585-1.456,2.089-9.231,3.427-46.349.642-56.158-.9-.46-.064-.921-.139-1.371-.214a2.013,2.013,0,0,1-1.681-1.928c-.525-15.806.032-31.73,2.816-41.347,3.663-12.637,11.159-23.913,17-32.052a3.9,3.9,0,0,1,3.737-1.638c11.544,1.66,23.228,2.4,34.825.878,10.035-1.317,19.8-4.07,29.45-7.2,1.2-.385,1.757.172,2.356,1.35C180.02,366.586,188.983,393.562,187.184,421.266Z"/><g class="r"><path class="s" d="M153.087,397.738a13.715,13.715,0,0,1-4.166,1.574c-1.157.29-2.324.515-3.491.7.257,3.609.31,7.24.31,10.859q0,6.105-.267,12.209-.225,5.364-.675,10.719-.515.081-1,.193a.573.573,0,0,0-.225.1c.621-7.2.975-14.435,1.039-21.664.043-4.091-.053-8.181-.043-12.272-.086.01-.171.032-.257.043a41.485,41.485,0,0,1-9.284.139c-.4-.032-.407-.643-.011-.611a45.009,45.009,0,0,0,9.22-.471c.1-.01,3.32-.621,4.412-.9a32.908,32.908,0,0,1,4.316-1.05C153.215,397.267,153.269,397.62,153.087,397.738Z"/><path class="s" d="M92.261,383.131a21.005,21.005,0,0,1,4.073.777c1.326.3,2.651.641,3.99.88a7,7,0,0,0,3.98-.343,17.827,17.827,0,0,0,3.212-1.82,28.067,28.067,0,0,0,8.789-9.738,29.483,29.483,0,0,0,1.567-3.3,23.372,23.372,0,0,1,1.31-3.418.235.235,0,0,1,.434.119,9,9,0,0,1-.71,3.379,27.391,27.391,0,0,1-1.3,3.164,28.267,28.267,0,0,1-8.961,10.537c-2.08,1.489-4.483,2.98-7.136,2.844a28.389,28.389,0,0,1-4.636-.861,25.928,25.928,0,0,1-4.878-1.242C91.5,383.893,91.766,383.12,92.261,383.131Z"/><path class="s" d="M167.176,363.015c.113-.4.635-.237.72.078a24.126,24.126,0,0,1,.443,3.371,26.014,26.014,0,0,0,3.091,9.435,24.373,24.373,0,0,0,1.84,2.821,5.877,5.877,0,0,0,2.469,2.227c2.159.761,3.394-1.608,4.682-2.818.278-.261.695.1.572.421A6.388,6.388,0,0,1,177.644,382c-1.862.669-3.528-.4-4.713-1.784a25.743,25.743,0,0,1-5.29-10.613C167.146,367.563,166.586,365.084,167.176,363.015Z"/><path class="s" d="M148.561,382.847c.176-1.03.337-2.061.453-3.1a47.6,47.6,0,0,0,.295-6.236,53.528,53.528,0,0,0-1.806-12.378c-.109-.421.5-.648.648-.225a42.335,42.335,0,0,1,2.165,12.536,46.81,46.81,0,0,1-.243,6.276c-.112,1.037-.253,2.074-.439,3.1a10.758,10.758,0,0,1-.879,3.1.321.321,0,0,1-.6-.121A17.192,17.192,0,0,1,148.561,382.847Z"/><path class="s" d="M146.016,374.189a44.675,44.675,0,0,0-1.279-10.968c-.1-.423.532-.654.647-.225a43.75,43.75,0,0,1,1.537,11.253,31.107,31.107,0,0,1-1.633,11.078c-.111.294-.538.11-.5-.172A79.953,79.953,0,0,0,146.016,374.189Z"/></g><path class="t" d="M328.63,504.385s-6.3,4.91-27.81,4.23c-.4-.01-.8-.02-1.21-.04-10.72-.43-25.06-2.23-44.05-6.59,0,0-20.8-62.13-11.48-100.41,7.26-29.85,24.95-48.4,24.95-48.4l61.08-5.74C335.25,358.345,365.43,420.125,328.63,504.385Z"/><g class="u"><path class="s" d="M311.53,406.735a13.685,13.685,0,0,1-4.07,1.82c-1.13.36-2.28.65-3.44.91.49,3.59.76,7.21.98,10.82.25,4.06.19,11.7-.04,15.77-.6,10.6-2.58,53.03-3.12,61.07q-.225,3.33-.53,6.66c-.14,1.58-.2,3.24-.49,4.83-.4-.01-.8-.02-1.21-.04.06-1.45.29-2.91.43-4.33.18-1.96.34-3.93.49-5.89q.435-6.03.62-12.07c.25-7.97,3.24-56.42,2.83-64.38-.21-4.08-.56-8.16-.8-12.25a2.442,2.442,0,0,1-.26.06,41.1,41.1,0,0,1-9.26.71c-.39-.01-.44-.61-.04-.61a44.14,44.14,0,0,0,9.17-1.04c.1-.02,3.28-.82,4.35-1.16a33.028,33.028,0,0,1,4.24-1.32C311.63,406.245,311.7,406.605,311.53,406.735Z"/><path class="s" d="M252.644,392.614a21.145,21.145,0,0,1,4.072.777c1.327.3,2.651.641,3.99.88a6.985,6.985,0,0,0,3.981-.343,17.823,17.823,0,0,0,3.212-1.819,28.076,28.076,0,0,0,8.788-9.739,29.561,29.561,0,0,0,1.568-3.295,23.28,23.28,0,0,1,1.309-3.418.235.235,0,0,1,.434.119,8.958,8.958,0,0,1-.71,3.378,27.311,27.311,0,0,1-1.3,3.164,28.246,28.246,0,0,1-8.961,10.537c-2.08,1.489-4.484,2.981-7.137,2.844a28.4,28.4,0,0,1-4.635-.861,25.8,25.8,0,0,1-4.879-1.242C251.878,393.376,252.148,392.6,252.644,392.614Z"/><path class="s" d="M327.559,372.5c.113-.4.634-.236.72.078a24.121,24.121,0,0,1,.442,3.372,26.055,26.055,0,0,0,3.092,9.435,24.374,24.374,0,0,0,1.84,2.821,5.89,5.89,0,0,0,2.469,2.227c2.159.761,3.394-1.609,4.681-2.819.278-.261.7.1.572.422a6.391,6.391,0,0,1-3.349,3.453c-1.861.669-3.527-.4-4.712-1.785a25.739,25.739,0,0,1-5.29-10.612C327.529,377.046,326.969,374.568,327.559,372.5Z"/><path class="s" d="M308.944,392.331c.176-1.03.336-2.061.453-3.1a47.583,47.583,0,0,0,.295-6.236,53.51,53.51,0,0,0-1.806-12.377c-.109-.422.5-.649.647-.226a42.277,42.277,0,0,1,2.165,12.537,46.629,46.629,0,0,1-.243,6.275c-.111,1.038-.253,2.074-.439,3.1a10.714,10.714,0,0,1-.878,3.1.321.321,0,0,1-.6-.121A17.267,17.267,0,0,1,308.944,392.331Z"/><path class="s" d="M306.4,383.672a44.665,44.665,0,0,0-1.28-10.967c-.1-.424.532-.655.648-.226a43.762,43.762,0,0,1,1.537,11.254,31.146,31.146,0,0,1-1.633,11.077c-.112.294-.538.111-.5-.172A80.075,80.075,0,0,0,306.4,383.672Z"/></g><path class="h" d="M373.936,431.879a78.886,78.886,0,0,1,4.89,17.717c.62,4.593-.436,5.38-1.655,2.267-1.159-2.96-1.965-6.464-2.561-6.3-.3.081.758,2.5,1.177,6.112.486,4.189.537,7.452-.9,7.292s-3.192-8.693-4.14-11.385c-.49-2.755.686,7.387.058,11.266-.424,4.3-2.581,5.022-3.01-.215-.554-5.242-1.144-9.161-1.9-10.335-.432,1.243-.291,2.733-.7,8.758-.493,4.485-2.741,4.463-3.187.145-.5-5.208-.252-13.062-1.963-13.462-1.25.276-.915,2.279-3.435,6.343-2.58,4.075-1.682-2.012-1.077-6.618.738-4.8-.4-10.036-.466-13.585-.057-4.794-1.038-6.992,3.308-8.571,2.535-.921,6.337-3.053,9.36-.961C370.149,422.026,371.8,427.238,373.936,431.879Z"/><path class="e" d="M324.323,255.345c-11.563,5.671-2.145,42.5,9.2,94.472,11.008,50.409,18.241,75.447,18.455,78.874s3.76,4.37,12.505,3.915,12.436-5.558,9.77-10.234-15.759-48.065-21.877-85.7-9.053-55.737-10.7-64.959C339.289,258.331,328.477,253.308,324.323,255.345Z"/><g class="p"><path class="v" d="M304.918,253.589c.661,1.993,1.085,4.052,1.558,6.1.207.9.4,1.8.663,2.679.122.411.275,1.27.7,1.495.549.29.988-.573,1.231-.917a37.577,37.577,0,0,0,4.773-10.221.159.159,0,0,1,.307.084,32.1,32.1,0,0,1-3.885,9.306c-.491.839-1.439,3.124-2.761,2.322a2.993,2.993,0,0,1-.985-1.791c-.259-.84-.452-1.7-.654-2.556-.5-2.117-1.057-4.227-1.36-6.384A.214.214,0,0,1,304.918,253.589Z"/><path class="v" d="M288.792,255.916c1.33,1.341,2.515,2.8,3.94,4.053a24.936,24.936,0,0,0,2.435,1.884c.838.569,1.943,1.484,2.934.733a7.791,7.791,0,0,0,1.782-2.31,23.578,23.578,0,0,0,1.254-2.522c.378-.863.728-1.739,1.1-2.6a3.966,3.966,0,0,1,1.349-1.939c.2-.124.4.153.243.315a7.951,7.951,0,0,0-1.513,2.882c-.357.944-.717,1.886-1.138,2.8a15.18,15.18,0,0,1-1.56,2.724,3.59,3.59,0,0,1-1.968,1.632,3.648,3.648,0,0,1-2.562-.9,26.758,26.758,0,0,1-2.446-1.805,16.71,16.71,0,0,1-4.189-4.681A.218.218,0,0,1,288.792,255.916Z"/></g><path class="e" d="M324.844,254.027c-9.892-8.016-55.68-9.315-67.687,3.305-4.387,4.611-8.626,14.116-7.375,23.682,2.093,16.007,12.585,34.279,12.451,45.406-.2,16.525-11.217,41.823-7.021,46.762,4.133,4.865,21.158,8.623,50.039,6.968,27.484-1.574,34.469-3.57,34.839-9.622.142-2.325-9.623-25.563-9.542-45.945.04-9.936,3.162-11.461,4.486-25.767.834-9.009-1.825-17.256-3.443-25.452C329.666,263.614,328.552,257.032,324.844,254.027Z"/><g class="r"><path class="h" d="M340.09,370.528a16.488,16.488,0,0,0-.807-2.981l-.981-2.938c-.661-1.957-1.322-3.915-1.951-5.885-1.241-3.944-2.374-7.926-3.356-11.95a106.816,106.816,0,0,1-2.273-12.223,70.146,70.146,0,0,1-.62-12.455,34.051,34.051,0,0,1,.993-6.2c.512-2.025,1.128-3.989,1.624-5.98a76.768,76.768,0,0,0,1.974-12.137c.662-8.209-1.692-16.3-3.1-24.415.921,4.028,2.005,8.012,2.842,12.071a49.912,49.912,0,0,1,1.082,12.4,69.5,69.5,0,0,1-1.85,12.318c-.487,2.021-1.091,4.007-1.576,5.991a33.142,33.142,0,0,0-.919,6.023,69.242,69.242,0,0,0,.517,12.267c.485,4.082,1.228,8.134,2.107,12.158s1.922,8.017,3.057,11.984c.551,1.989,1.135,3.969,1.72,5.95l.866,2.976A16.581,16.581,0,0,1,340.09,370.528Z"/></g><path class="h" d="M301.17,361.734c6.295-.166,14.3,1.73,19.042,3.508,5.023,1.88,5.978.935,2.3-2.006-3.279-2.532-6.783-3.8-6.707-4.478.034-.323,2.859.575,6.791,2.317,4.041,1.795,6.906,3.234,7.556,1.852.718-1.605-9.673-7.953-12.813-8.56-3.043-1.107,9.089,1.58,12.966,3.727,4.395,2.087,4.81-.439-.713-3.966-5.575-3.4-10.9-4.453-12.3-5.377,1.264-.3,2.948-.523,9.272,1.013,4.638,1.342,4.446-.988-.176-3.339-5.561-2.874-14.341-2.47-15.1-4.062.084-1.4,2.37-1.509,6.361-4.315,3.978-2.722-2.439-2.41-7.46-.606-5.184,1.738-11.351,3.268-15.474,5.914-5.557,3.518-8.879,7.472-8.725,12.136C286.167,360.471,288.468,362.253,301.17,361.734Z"/><path class="e" d="M264.406,256.96c2.075,11.551,3.624,21.832-7.056,34.049S225.1,314.069,226.8,328.383s19.58,17.9,31.6,16.019,30.706-6.083,38.494-4.673,7.016,22.935,1.008,24.815-70.508,10.967-86.528-9.281c-18.258-23.076-8.156-43.561,7.2-62.121S261.959,243.334,264.406,256.96Z"/><g class="r"><path class="h" d="M297.9,364.544a70.4,70.4,0,0,1-10.45,2.2c-3.52.547-7.064.922-10.612,1.229-3.55.271-7.108.462-10.67.5s-7.123-.033-10.673-.3c1.778-.117,3.553-.131,5.327-.257,1.774-.062,3.546-.166,5.317-.27,3.54-.233,7.079-.451,10.613-.745,3.535-.279,7.064-.625,10.594-.975,1.766-.17,3.527-.381,5.288-.6S296.157,364.894,297.9,364.544Z"/></g><g class="r"><path class="s" d="M260.973,343.982c1.47-.372,2.95-.682,4.423-1.034l4.439-.942c2.961-.625,5.942-1.158,8.933-1.641,2.995-.455,6-.868,9.039-1.054a32.435,32.435,0,0,1,9.086.418,29.365,29.365,0,0,0-4.517-.007c-1.5.075-3,.231-4.493.41-2.988.376-5.97.813-8.95,1.29l-8.954,1.391C266.988,343.257,263.992,343.7,260.973,343.982Z"/></g><path class="o" d="M302.4,244.674s22.869-4.015,28.63-24.615,7.332-44.865,2.793-52.9-37.009,76.986-37.009,76.986Z"/><path class="w" d="M281.491,253.472a18.809,18.809,0,0,0,8.878,4.13c6.8,1.39,6.384-2.346,6.384-2.346l1.114-9.017,1.626-13.137-16.029-2.553L282.1,241.611l-1.251,10.107A2.029,2.029,0,0,0,281.491,253.472Z"/><path class="x" d="M282.1,241.611a30.19,30.19,0,0,0,5.261,2.48,43.6,43.6,0,0,0,7,1.8,16.489,16.489,0,0,0,3.5.343l1.626-13.137-16.029-2.553Z"/><path class="h" d="M335.39,211.017c-1.51,8.824-5,16.438-10.881,21.792-6.479,5.933-15.892,9.114-28.785,8.15-.247-.011-.5-.032-.761-.054-17.145-1.467-27.329-9.027-33.829-19.554-6.019-9.724-8.889-21.986-11.213-34.333-4.851-25.723,11.577-50.257,39.217-50.354,31.976-.117,44.067,19.1,46.776,55.344A72.926,72.926,0,0,1,335.39,211.017Z"/><g class="y"><path class="o" d="M295.724,240.959c-.247-.011-.5-.032-.761-.054-17.145-1.467-27.329-9.027-33.829-19.554A28.614,28.614,0,0,1,267.1,214.5c7.668-6.2,19.63-4.562,26.655,3.673C299.664,225.088,300.253,234.469,295.724,240.959Z"/><path class="o" d="M335.39,211.017c-1.51,8.824-5,16.438-10.881,21.792a18.446,18.446,0,0,1,1.692-12.5C328.386,215.761,331.845,212.42,335.39,211.017Z"/></g><path class="w" d="M258.638,210.007c-1.362,3.936-7.792,5.352-12.987,1.81s-8.972-14.246-5.115-20.071,13.036-3.232,16.528,3.7C259.7,200.68,259.7,206.937,258.638,210.007Z"/><path class="m" d="M243.882,195.883a.391.391,0,0,1,.171-.647c1.23-.3,2.6.468,3.623,1.085a12.543,12.543,0,0,1,3.032,2.533,11.214,11.214,0,0,1,2.841,7.368c-.011.5-.795.648-.906.123a13.912,13.912,0,0,0-3.022-6.525c-.221-.25-.472-.466-.712-.7-.1.121-.211.233-.309.346-.177.205-.359.4-.534.611a11.02,11.02,0,0,0-.945,1.342c-.58.948-.932,2.023-1.585,2.928-.121.168-.465.194-.5-.067a5.3,5.3,0,0,1,1.007-3.494,10.634,10.634,0,0,1,1.121-1.49,5.958,5.958,0,0,1,.636-.635c.1-.087.209-.175.318-.254a11.405,11.405,0,0,0-1.169-.839C245.969,196.983,244.7,196.682,243.882,195.883Z"/><path class="n" d="M311.831,215c-3.519.431-6.1-2.767-9.119.1-2.4,2.28,2.352,7.893,8.845,7.4s8.908-5.781,7.113-7.372S316.008,214.488,311.831,215Z"/><path class="o" d="M305.119,217.529a13.12,13.12,0,0,1,3.628.873,9.828,9.828,0,0,1,3.195,2.089,7.951,7.951,0,0,1,1.385,1.722,11.367,11.367,0,0,1-1.77.284c-4.384.332-7.966-2.119-9.1-4.449C303.075,217.406,304.34,217.462,305.119,217.529Z"/><path class="j" d="M284.173,201.145a17.911,17.911,0,0,1,1.538-1.455,13.649,13.649,0,0,1,3.706-2.35,6.877,6.877,0,0,1,4.229-.457,2.615,2.615,0,0,1,2.074,2.99c-.1.476-.791.339-.815-.111-.075-1.395-1.673-1.707-2.787-1.623a7.845,7.845,0,0,0-3.215,1.06,14.911,14.911,0,0,0-2.727,2.041c-.806.739-1.641,1.838-2.72,2.157a.386.386,0,0,1-.47-.471A4.163,4.163,0,0,1,284.173,201.145Z"/><path class="j" d="M320.229,198.369a9.946,9.946,0,0,1,.992-1.592,10.049,10.049,0,0,1,2.895-2.643,4.027,4.027,0,0,1,3.837-.426,2.4,2.4,0,0,1,1.277,2.872.411.411,0,0,1-.791-.218c.182-.876-.708-1.639-1.512-1.723a4.19,4.19,0,0,0-2.866,1.139,9.222,9.222,0,0,0-1.971,2.126,11.326,11.326,0,0,0-.725,1.283,3.028,3.028,0,0,1-.883,1.252.415.415,0,0,1-.6-.246A2.425,2.425,0,0,1,320.229,198.369Z"/><path class="m" d="M321.278,208.336a17.413,17.413,0,0,1-6.156-6.654,17.74,17.74,0,0,1-1.585-4.235c-.343-1.466-.486-2.988-.723-4.472-.045-.289-.5-.268-.562,0-.721,3.1.4,6.557,1.856,9.3a18.376,18.376,0,0,0,5.283,6.138,20.737,20.737,0,0,1-2.82.035c-.712-.046-1.423-.117-2.128-.231a17.389,17.389,0,0,0-2-.318.359.359,0,0,0-.18.665,11.142,11.142,0,0,0,4.185.93,21.235,21.235,0,0,0,4.543-.111A.567.567,0,0,0,321.278,208.336Z"/><path class="q" d="M285.514,180.236a12.608,12.608,0,0,1,3.174-2.706,11.931,11.931,0,0,1,3.787-1.505c1.27-.249,2.931-.488,4.113.179a.516.516,0,0,1-.1.937,8.879,8.879,0,0,1-1.732.315,13.947,13.947,0,0,0-1.739.387,12.7,12.7,0,0,0-3.316,1.489,11.641,11.641,0,0,0-2.653,2.337c-.7.832-1.315,2.188-2.352,2.62a.527.527,0,0,1-.646-.348C283.577,182.72,284.785,181.118,285.514,180.236Z"/><path class="q" d="M328.573,174.842a8.718,8.718,0,0,0-2.941-1.649,7.087,7.087,0,0,0-3.115-.321,4.191,4.191,0,0,0-2.965,1.384c-.24.333-.05.843.285.867a5.293,5.293,0,0,0,1.338-.21,8.326,8.326,0,0,1,1.361-.143,7.606,7.606,0,0,1,2.765.445,8.146,8.146,0,0,1,2.477,1.45c.706.588,1.464,1.7,2.322,1.81.226.028.379-.267.392-.523C330.56,176.645,329.309,175.47,328.573,174.842Z"/><path class="z" d="M267.873,186.632c2.284-4.712,7.355-24.935,38.552-27.7,25.773-2.285,27.129,11.137,27.129,11.137s-2-33.555-38.695-29.557S267.873,186.632,267.873,186.632Z"/><path class="o" d="M299.286,240.748c-9.755-1.524-25.916-6.639-28.486-28.7s-3.856-40.908,6.425-54.4,18.2-16.706,27.629-15.421,21.632,5.89,28.968,33.84c0,0,1.446,2.356,1.874-2.784s-5.354-29.771-22.7-34.483-47.976-5.354-56.757,2.142-24.631,50.118-16.064,65.967,31.056,31.27,33.84,33.2-.856,3.213-.642,5.354-11.994,4.07-15.421,7.068,11.137,17.991,36.625,18.848,33.111-15.515,31.384-17.241c-4.176-4.177-21.318-5.89-21.746-7.6S306.139,241.819,299.286,240.748Z"/><path class="h" d="M366.955,276.939c-4.679-3.622-11.8-6.631-16.379-7.915-4.851-1.365-5.05-2.612-.631-2.8,3.891-.1,7.252.884,7.569.331.154-.263-2.485-1.152-6.433-2.016-4.06-.883-7.03-1.383-6.755-2.792.347-1.615,11.747-.656,14.465.628,2.921.851-7.766-3.849-11.9-4.376-4.49-.859-3.4-3,2.743-2.609,6.111.521,10.731,2.676,12.31,2.758-.792-.928-1.943-2.034-7.589-4.382-4.261-1.558-2.82-3.217,1.988-2.432,5.811.909,12.24,6.092,13.7,5.309.715-1.109-.958-2.459-2.424-6.8-1.5-4.272,3.186-.473,5.99,3.683,2.964,4.2,6.788,8.78,8.443,13.076,2.258,5.751,2.579,10.592-.127,14.042C379.027,284.314,376.293,284.386,366.955,276.939Z"/><path class="aa" d="M366.365,266.685a1.057,1.057,0,0,1,.475-.15,4.064,4.064,0,0,1,.6-.076c.384.01.764.052,1.144.1.758.1,1.511.248,2.256.418s1.461.352,2.171.589a8.452,8.452,0,0,1,2.144.9.45.45,0,0,1-.335.822,16.625,16.625,0,0,1-2.106-.6c-.723-.2-1.445-.4-2.178-.564-.717-.157-1.438-.276-2.162-.389-.36-.056-.72-.11-1.078-.177-.186-.035-.336-.122-.515-.172a1.108,1.108,0,0,1-.475-.245A.294.294,0,0,1,366.365,266.685Z"/><path class="b" d="M434.542,258.033c7.59,4.524,4.231,14.668-2.01,29.693-4.96,11.941-29.769,62.457-46.839,61.262-11.992-.839-18.427-61.787-19.27-70.162,3.446-.368,12.508-2.008,19.537-5.571,2.062,5.04,4.028,35.622,5.462,43.033,2.9-6.9,12.774-28.121,19.938-41.026C416.406,266.172,426.951,253.509,434.542,258.033Z"/><path class="z" d="M417.838,359.853l82.871.7c0,1.662,9.111,106.2,10.318,137.707.432,11.283-35.509,12.026-38.124,2.012-3.326-12.735-7.992-76.814-11.532-94.461-.464-2.316-7.176-.708-7.068,1.61.778,16.689,5.8,88.048,5.524,99.106-.2,8.136-31.187,7.579-33.6-1.6C415.889,465.608,407.316,387.05,417.838,359.853Z"/><path class="e" d="M424.646,261.837c8.812-8.141,59.489-15.915,72.366-4.312s7.578,55.492,2.563,79.857c-4.875,23.683,6.069,29.78,1.718,34.362-4.238,4.463-21.57,7-49.671,3.748-25.174-2.915-31.389-5.041-31.885-10.412-.191-2.065,3.516-18.984,2.832-37.272C422.235,318.855,421.395,264.84,424.646,261.837Z"/><path class="z" d="M471.68,251.431c3.481,3.152-4.584,12.071-15.731,11.543s-6.544-7.143-4.47-8.872S466.659,246.885,471.68,251.431Z"/><g class="r"><path class="v" d="M490.411,298.952a9.838,9.838,0,0,1,2.36,1.387c.644.438,1.286.876,1.915,1.333a48.117,48.117,0,0,1-4.047-7.005.2.2,0,0,1,.339-.2c1.825,2.7,3.477,5.5,5.33,8.18s3.95,5.158,5.808,7.819c.169.242-.2.508-.4.309a53.178,53.178,0,0,1-6.024-7.626c-.191-.276-.378-.558-.568-.835a.237.237,0,0,1-.341.081c-.8-.461-1.578-.964-2.358-1.463-.384-.246-.766-.493-1.144-.748a5.36,5.36,0,0,1-1.077-.878C490.072,299.158,490.194,298.882,490.411,298.952Z"/></g><path class="b" d="M511.149,269.721c1.617,12.229-8.5,52.5-4.834,67.75s10.056,53.381,10.505,56.678-26.685,9.622-35.035,2.686-9.723-51.914-10.134-77.5-2.745-65.273-1.78-68.877c-.341-1.344,15.156.673,27.2,5.783C504.451,259.372,510.255,262.959,511.149,269.721Z"/><path class="b" d="M454.84,251.719c-4.6,2.336-17.385,13.581-22.172,41.146s-2.456,95.419-1.84,99.625-11.467,3.323-19.1.735-.793-58.023.465-70.16,5.684-62.01,16.373-65.854C439.578,253.25,455.022,250.862,454.84,251.719Z"/><path class="h" d="M527.241,432.7c-2.647,5.526-4.14,13.391-4.443,18.307-.324,5.208-1.543,5.681-2.7,1.249-.947-3.918-.686-7.534-1.316-7.735-.3-.1-.624,2.767-.637,6.952-.01,4.3.132,7.418-1.355,7.447-1.711,0-3.224-11.749-2.517-14.78.225-3.142-2.2,8.7-1.836,13,.108,4.733-2.3,4.1-3.24-2.208-.8-6.3.37-11.447.108-13.063-.765,1-1.634,2.411-2.78,8.638-.649,4.653-2.643,3.557-2.9-1.482-.346-6.081,3.5-13.719,2.387-15.029-1.278-.482-2.28,1.505-6.357,3.937-4,2.453-1.173-3.123,2.423-6.867,3.6-3.916,7.408-8.786,11.4-11.4,5.331-3.54,10.161-4.92,14.243-2.933C532.075,418.874,532.745,421.626,527.241,432.7Z"/><path class="b" d="M490.031,257.214c9.181-5.316,50.116,21.6,60.357,85.64,9.28,58.038-19.793,86.765-19.793,86.765s-13.95,1.451-18.5-11.025c10.456-19.62,15.456-40.788,9.091-72.274-8.859-43.817-23.672-52.99-29.385-61.467S479.024,263.588,490.031,257.214Z"/><path class="h" d="M449.62,235.53l1.617,13.075.011.064,1.113,9.017s-.417,3.738,6.383,2.346a18.744,18.744,0,0,0,8.878-4.134,2.034,2.034,0,0,0,.642-1.756l-.685-5.483-.568-4.616-1.36-11.062Z"/><path class="ab" d="M449.62,235.53l1.617,13.075a43.123,43.123,0,0,0,16.342.054l-.568-4.616-1.36-11.062Z"/><path class="j" d="M504.767,186.426s8.564-6.113,5.4-21.014-13.4-20.059-13.4-20.059-6.329.382-1.675,13.946S504.767,186.426,504.767,186.426Z"/><path class="h" d="M508.915,195.988c2.63,28.729-7.99,53.39-41.176,50.467s-40.436-29.083-45.308-55.62,11.645-51.86,39.442-51.963C494.031,138.754,506.193,158.59,508.915,195.988Z"/><path class="j" d="M437.62,198.123s3.543,22.849,14.188,28.847c6.971,3.927,12.608-3.545,20.276-8.639a25.556,25.556,0,0,1,14.207-4.141c13.58.21,15.074,11.566,18.205,8.567s2.454-12.516,5.069-10.851c1.571,1,1.61,9.352-2.356,21.346s-16.439,15.778-36.268,14.279-34.313-10.765-38.467-20.6c-4.882-11.56,2.126-9.527-2.46-26.169C428.464,195.139,436.785,193.2,437.62,198.123Z"/><path class="j" d="M409.963,167.927a48.88,48.88,0,0,1,12.3-15.591s-9.255,1.338-7.017-2.8,11.763-1.624,11.763-1.624-1.212-14.176,2.267-15.06,2.847,9.979,2.847,9.979c3.323-4.205,15.33-13.326,39.132-13.086,24.205.244,37.883,16.4,30.749,28.442-7.167,12.1-25.4,1.934-25.4,1.934s8.264,7.316-1.112,8.862c-9.327,1.537-23.706-9.25-23.706-9.25,3.175,6.205,2.332,19.036-2.918,24.6-3.817,4.042-7.065,3.263-9.289,1.073a35.564,35.564,0,0,0-.463,11.966c1.159,7.812.288,12.035-4.267,11.751-3.749-.233-.923-13.444-14.882-12.518C411.06,189.937,406,176.293,409.963,167.927Z"/><path class="n" d="M485.752,220.628c-3.988.226-6.653-3.662-10.257-.6-2.872,2.444,2.049,9.286,9.384,9.221s10.448-5.98,8.55-7.954S490.485,220.36,485.752,220.628Z"/><path class="ac" d="M478.017,223.027a14.5,14.5,0,0,1,4.012,1.287,11.121,11.121,0,0,1,3.434,2.655,9.211,9.211,0,0,1,1.427,2.094,12.583,12.583,0,0,1-2.011.191c-4.952.044-8.793-3.06-9.889-5.833C475.729,222.728,477.147,222.889,478.017,223.027Z"/><path class="j" d="M470.547,184.332c-1.6-2.668-5.417-1.533-7.739-.64a15.686,15.686,0,0,0-7.873,6.533c-.483.824.572,1.286,1.214,1.229,2.456-.219,4.813-2.068,7.279-2.558,2.166-.429,9.53.312,7.276-4.276C470.655,184.52,470.6,184.424,470.547,184.332Z"/><path class="j" d="M492.318,182.564c-.925,4.475,4.263,2.664,5.887,2.714,1.849.056,3.826,1.353,5.627,1.168.47-.048,1.16-.627.687-1.293a11.725,11.725,0,0,0-6.659-4.65c-1.806-.442-4.725-.87-5.472,1.777C492.362,182.371,492.339,182.466,492.318,182.564Z"/><path class="j" d="M466.246,200.7c.2,2.115-.9,3.946-2.46,4.09s-2.974-1.453-3.17-3.567.9-3.945,2.459-4.09S466.049,198.581,466.246,200.7Z"/><path class="j" d="M500.644,197.5c.184,1.976-.845,3.686-2.3,3.821s-2.778-1.357-2.962-3.332.846-3.687,2.3-3.822S500.461,195.526,500.644,197.5Z"/><path class="aa" d="M484.4,210.662a17.368,17.368,0,0,0,6.819.953,50.226,50.226,0,0,1-8.07-22.1c-.048-.446.717-.554.789-.107a54.845,54.845,0,0,0,8.8,22.365.6.6,0,0,1-.357.877,10.656,10.656,0,0,1-8.236-1.383C483.856,211.059,484.012,210.546,484.4,210.662Z"/><path class="h" d="M431.2,214.564c-1.371,4.062-7.837,5.523-13.061,1.868s-9.024-14.7-5.145-20.712,13.111-3.336,16.623,3.817C432.27,204.939,432.27,211.4,431.2,214.564Z"/><path class="aa" d="M416.362,199.989a.407.407,0,0,1,.172-.668c1.236-.315,2.614.483,3.643,1.119a12.675,12.675,0,0,1,3.049,2.615,11.741,11.741,0,0,1,2.857,7.6c-.011.518-.8.669-.911.126a14.54,14.54,0,0,0-3.039-6.734c-.222-.257-.475-.48-.715-.717-.1.125-.213.24-.312.358-.177.211-.361.417-.536.63a11.244,11.244,0,0,0-.951,1.385c-.584.979-.938,2.088-1.594,3.021-.121.174-.468.2-.508-.068a5.572,5.572,0,0,1,1.013-3.607,10.969,10.969,0,0,1,1.127-1.537,6.09,6.09,0,0,1,.64-.655c.105-.09.21-.18.319-.262a11.218,11.218,0,0,0-1.175-.866C418.46,201.124,417.187,200.813,416.362,199.989Z"/><g class="ad"><path class="h" d="M412.586,353.579c.211-5.54.623-11.069,1.1-16.59s1.119-11.025,1.644-16.539c.636-5.508,1.3-11.014,2.161-16.492.438-2.738.9-5.473,1.391-8.2.535-2.721,1.064-5.442,1.7-8.141-.813,5.483-1.587,10.963-2.273,16.456s-1.361,10.984-1.913,16.491Z"/></g><path class="w" d="M599.87,256.206c-2.6-4.416-15.87-2.53-24.642,6.123s-32.7,41.552-33.4,55.952,19.133,51.546,19.133,51.546,8.276-.731,11.28-12.422c0,0-8.356-29.632-9.852-36.268s17.7-30.656,22.576-34.372S609.265,272.188,599.87,256.206Z"/><path class="d" d="M549.4,286.975s1.095,9.275,8.674,15.1c7.529,5.787,14.671,5.247,14.671,5.247a114.44,114.44,0,0,0,13.885-18.444c2.738-4.617,17.581-20.88,15.529-29.567-2.548-10.789-19.447-4.415-27.129,2.07A237.593,237.593,0,0,0,549.4,286.975Z"/><path class="w" d="M579.949,369.644c-.189,3.375-9.415,12.295-14.884,10.845s-9.8-8.054-5.517-12.564S570.87,358,573.8,359.053,580.221,364.8,579.949,369.644Z"/><path class="w" d="M643.433,353.237c.2-.415,3.258-18.69,3.258-18.69L584.6,322.494v20.775Z"/><path class="i" d="M607.817,347.408a5.427,5.427,0,0,0,.642-2.636,25.242,25.242,0,0,0-.529-2.636.185.185,0,0,1,.277-.159,3.27,3.27,0,0,1,1.118,2.8,5.046,5.046,0,0,1-.217,1.55,4.575,4.575,0,0,1-.749,1.4A.314.314,0,0,1,607.817,347.408Z"/><path class="e" d="M578.239,346.589a10.931,10.931,0,0,1,2.843-3.876c2.182,1.074,4.386,2.1,6.628,3.047a91.139,91.139,0,0,0,30.511,7.5c5.623.289,11.254.042,16.875-.163,2.741-.1,5.454-.27,8.182-.567,1.407-.153,2.817-.3,4.229-.407,25.29,43.666,22.9,132.376,21.076,146.606-1.918,15-33.172,10.853-37.556,5.127s-7.2-50.667-21.682-97.231c-.8-2.584-4.264-2.122-4.3-.9-.055,1.692,14.932,88.845,17.026,95.1,2.013,6.01-15.708,7.639-25.708,2.039s-25.2-40.4-29.8-81S574.128,356.132,578.239,346.589Z"/><path class="f" d="M583.624,336.031a.818.818,0,0,1,.99-.06,74.522,74.522,0,0,0,26.041,10.653c5.522,1.142,28,2.731,37.535,1.392,16.228,27.826,22.108,63.669,23.437,89.724a119.635,119.635,0,0,1-13.951,3.223,112.462,112.462,0,0,1-30.714,1.013c-10.881-1.184-25.066-5.239-29.535-6.667-9.532-3.047-18.843-6.737-28.085-10.562q-2.319-.96-4.633-1.931C556.068,379.851,578.358,340.4,583.624,336.031Z"/><path class="d" d="M650.286,333.988a36.152,36.152,0,0,1-3.676.293c-2.859.107-5.728.111-8.588.164a176.093,176.093,0,0,1-36.772-3.138,119.528,119.528,0,0,1-17.452-4.89c-.9-.322-1.8-.666-2.693-1,.185-2.407.308-4.9.337-7.438.093-8.078-7.969-8.415-7.5-20.085.346-8.706,4.43-18.066,6.5-24.385,2.711-8.262,2.788-14.517,6-17.317,8.8-7.679,58.561-13.353,70.1-1.016,11.414,12.208,1.647,54.079-5.426,76.02C650.8,332.159,650.53,333.084,650.286,333.988Z"/><path class="n" d="M632.383,247.79c3.481,3.152-4.584,12.071-15.731,11.543s-6.544-7.144-4.47-8.872S627.362,243.244,632.383,247.79Z"/><path class="ae" d="M574.775,291.4q1.17-4.327,2.36-8.693a.273.273,0,0,1-.235-.235c-.105-.738-.141-1.483-.2-2.224-.03-.371-.069-.743-.084-1.114a3.537,3.537,0,0,1,.025-1.069c.044-.164.258-.138.323.017a3.84,3.84,0,0,1,.188,1.08c.042.372.061.744.088,1.115.039.545.084,1.093.112,1.638q.508-1.866,1.016-3.743.52-1.911,1.043-3.832a16.589,16.589,0,0,1,1.157-3.61.2.2,0,0,1,.364.116,14.156,14.156,0,0,1-.669,3.116l-.883,3.238q-.879,3.223-1.751,6.425t-1.738,6.355c-.553,2.015-1.168,4.013-1.589,6.059a12.927,12.927,0,0,0,.248,7.032c.08.228-.274.369-.385.14C572.263,299.318,573.782,295.073,574.775,291.4Z"/><path class="w" d="M656.418,261.952c9.693.1,13.85,7.282,18.512,26,3.428,13.763,21.506,72.744,4.666,81.038-11.83,5.827-67.242-49.008-72.665-56.481,3.063-2.251,6.675-3.562,11.369-10.82,4.738,3.638,43.688,40.017,45.323,36.014,1.981-4.85-10.342-30.971-14.487-46.624C645.724,278.2,646.725,261.855,656.418,261.952Z"/><path class="w" d="M601.8,310.035c-4.678-4.083-11.236-9.424-15.059-12.406-4.053-3.161-3.768-4.757.246-3.338,3.561,1.259,6.58,3.2,7.038,2.691.226-.253-2.154-1.855-5.493-4.191-3.432-2.4-5.743-4.352-5.032-5.9s10.4,4.055,12.871,5.932-6.351-6.43-9.409-9.241c-3.425-3.149-1.8-5.158,3.223-1.887s8.847,6.917,10.362,7.44c-.476-1.282-1.429-2.6-5.725-7.4-3.188-3.56-1.407-4.878,2.535-2.03,4.731,3.416,9.856,10.406,11.622,9.82,1-1.011-.458-2.711-.732-7.788s3.071.519,5.11,5.3c2.11,4.944,5.675,9.846,7.222,13.956,2.081,5.528,2.461,9.745-1.275,12.883S611.262,318.288,601.8,310.035Z"/><path class="d" d="M686.3,309.007a60.122,60.122,0,0,1-15.484,8.881,32.088,32.088,0,0,1-16.75,1.8s-7.44-15.8-11.085-27.844c-1.914-6.325-3.579-28.164,2.3-36.028,5.431-7.27,18.131-1.18,23.573,6.669C680.465,279.229,686.3,309.007,686.3,309.007Z"/><path class="i" d="M628.522,334.54c-.113-.133.168.027.3.123,1.128.836,2.9,2.345,3.938,3.317l3.345,3.136c1.084,1.017,2.171,2.03,3.249,3.052,1.039.984,3.254,2.724,4.168,3.808.148.176.167.321,0,.2-1.106-.816-3.367-2.669-4.388-3.615-1.121-1.039-2.233-2.087-3.349-3.132l-3.253-3.049C631.46,337.379,629.457,335.643,628.522,334.54Z"/><path class="ae" d="M643.184,291.151a34.45,34.45,0,0,1,1.452,3.428q.684,1.7,1.349,3.4,1.377,3.522,2.8,7.024c1.934,4.721,3.913,9.426,5.9,14.125.106.251-.252.477-.376.22q-3.286-6.795-6.145-13.771-1.44-3.5-2.817-7.021-.687-1.758-1.327-3.538a30.3,30.3,0,0,1-1.217-3.707C642.761,291.091,643.069,290.938,643.184,291.151Z"/><path class="o" d="M668.181,130.693a17.093,17.093,0,0,1,13.077,11.576c1.44,4.712.741,9.765.651,14.691s.655,10.307,4.2,13.724c3.228,3.106,7.974,3.847,12.152,5.465,7.043,2.727,13.051,8.651,14.752,16.009s-1.594,15.9-8.341,19.291a27.831,27.831,0,0,1,3.365,21.206A22.679,22.679,0,0,1,693.782,248.3c-6.979,2.316-15.335.359-20.143-5.205a17.475,17.475,0,0,1-12.7,5.123c-5.14-.127-10-2.561-13.981-5.814a36.537,36.537,0,0,1-13.028-23.857c-.967-8.452,1.05-16.853,3.311-24.931l7.2-25.729,3.456-12.35c.274-.982,2.745-11.641,3.275-11.641,1.1-3.926.939-7.669,4.526-10.421C658.8,131.1,664.331,130.011,668.181,130.693Z"/><path class="j" d="M669.307,138.1a16.134,16.134,0,0,1,4.564,8.16,12.2,12.2,0,0,1,.376,5.638,5.8,5.8,0,0,1-3.391,4.287c-6.376,2.362-13.688-7.436-14.7-12.823C654.76,135.869,664.665,134.015,669.307,138.1Z"/><path class="o" d="M576.361,192.562c-2.6.694-8.625-6.489-5.617-23.5s9.376-19.947,15.275-16.244S583.391,190.683,576.361,192.562Z"/><path class="w" d="M613.634,252.723s-.052,3.809,5.945,3.169,9.351-5.732,9.351-5.732l-4.251-19.906-15.3,2.563Z"/><path class="x" d="M616.188,244.761a24.234,24.234,0,0,1-4.162.429l-2.642-12.374,15.3-2.562,2.14,10.021A31.875,31.875,0,0,1,616.188,244.761Z"/><path class="w" d="M658.7,187.211c-.053.267-.107.535-.16.814-2.249,11.844-5.066,23.559-10.688,33.015a43.136,43.136,0,0,1-7.625,9.585.01.01,0,0,0-.01.011c-6.233,5.75-14.629,9.691-26.259,10.783-.2.033-.417.043-.621.065-.728.053-1.435.107-2.142.139-12.165.632-21.15-2.485-27.436-8.16a29.665,29.665,0,0,1-2.849-2.935c-4.594-5.44-7.324-12.561-8.5-20.582-.258-1.767-.45-3.577-.557-5.419a80.558,80.558,0,0,1,.267-12.294C574.834,155.758,587,136.4,619.2,136.514a40.471,40.471,0,0,1,22.007,6.276C655.12,151.775,662.08,169.209,658.7,187.211Z"/><g class="af"><path class="o" d="M647.848,221.04a43.136,43.136,0,0,1-7.625,9.585.01.01,0,0,0-.01.011c-6.233,5.75-14.629,9.691-26.259,10.783-5.515-6.489-5.258-16.631,1.039-24,7.025-8.235,18.976-9.874,26.655-3.673A27.664,27.664,0,0,1,647.848,221.04Z"/><path class="o" d="M583.755,233.463a29.665,29.665,0,0,1-2.849-2.935c-4.594-5.44-7.324-12.561-8.5-20.582,3.865,1.146,7.753,4.658,10.141,9.606C584.965,224.531,585.286,229.757,583.755,233.463Z"/></g><path class="o" d="M621.357,131.458c-9.3-3.75-24.132.365-39.192,12.7s-15.827,25.475-10.29,28.5,15.711-10.765,15.711-10.765-7.906,15.186,3.672,16.6,13.3-10.353,13.3-10.353-.187,7.695,5.486,7.273,6.072-12.384,6.072-12.384-1.914,8.362,5.764,8.387S639.419,138.741,621.357,131.458Z"/><path class="n" d="M595.562,216.031c3.977-.023,6-4.856,9.76-2.1,3,2.194.71,8.421-8.785,9.5-9.214,1.047-10.738-5.161-8.968-7.187S590.842,216.057,595.562,216.031Z"/><path class="o" d="M595.905,223.446a10.492,10.492,0,0,1,3.547-4.8,13.091,13.091,0,0,1,3.857-1.638,4.278,4.278,0,0,1,3.152.168c-.521,2.565-3.632,5.538-9.924,6.253-.226.026-.426.028-.643.045Z"/><path class="j" d="M621.532,203.714a17.772,17.772,0,0,0-1.539-1.455,13.643,13.643,0,0,0-3.7-2.35,6.877,6.877,0,0,0-4.229-.456,2.614,2.614,0,0,0-2.074,2.989c.1.476.791.339.815-.11.074-1.4,1.672-1.707,2.787-1.623a7.834,7.834,0,0,1,3.215,1.059,14.99,14.99,0,0,1,2.727,2.041c.806.739,1.64,1.838,2.719,2.157a.387.387,0,0,0,.471-.471A4.172,4.172,0,0,0,621.532,203.714Z"/><path class="j" d="M585.475,200.938a9.8,9.8,0,0,0-.992-1.592,10.014,10.014,0,0,0-2.894-2.642,4.03,4.03,0,0,0-3.838-.427,2.4,2.4,0,0,0-1.277,2.873.411.411,0,0,0,.792-.218c-.182-.876.707-1.64,1.512-1.723a4.186,4.186,0,0,1,2.866,1.139,9.239,9.239,0,0,1,1.971,2.125,11.479,11.479,0,0,1,.725,1.283,3.027,3.027,0,0,0,.883,1.252.414.414,0,0,0,.6-.245A2.427,2.427,0,0,0,585.475,200.938Z"/><path class="m" d="M584.111,208.138a12.725,12.725,0,0,0,5.872-6.808,25.686,25.686,0,0,0,1.367-5.142c.158-.911.27-1.827.391-2.744a9.762,9.762,0,0,1,.526-2.583.389.389,0,0,1,.7.092,9.133,9.133,0,0,1-.048,2.819q-.157,1.438-.4,2.867a23.934,23.934,0,0,1-1.562,5.434,13.9,13.9,0,0,1-5.739,6.743,7.011,7.011,0,0,0,2.932,2.323c.435.19.108.808-.306.726a5.9,5.9,0,0,1-3.938-2.952A.573.573,0,0,1,584.111,208.138Z"/><path class="h" d="M606.657,183.923c.279-1.019,2.227-1.527,3.013-1.705a14.311,14.311,0,0,1,12.227,2.918c.942.795,3.262,2.754,2.93,4.228-.212.942-1.087-.017-1.341-.3-1.326-1.473-4.541-2.612-6.389-3.216-2.482-.811-5-.4-7.576-.26C608.578,185.638,606.232,185.475,606.657,183.923Z"/><path class="h" d="M589.712,183.938c.005-.987-1.4-1.767-1.967-2.058a10.177,10.177,0,0,0-10.123.747c-.9.586-3.131,2.027-3.193,3.444-.04.9.847.158,1.106-.063,1.349-1.151,4.091-1.691,5.657-1.955,2.1-.355,3.964.431,5.935.968C587.849,185.218,589.705,185.442,589.712,183.938Z"/><path class="o" d="M658.7,138.795c-13.194-8.612-48.118-8.145-48.209,1.663-.038,4.064,9.394,1.8,15.735,7.687,3.521,3.266,5.6,11.446,5.744,18.882-.855,15.48,7.07,22.344,10.474,24.328a19.387,19.387,0,0,0-.183,2.444c-5.393,6.947-4.416,12.109-1.115,12.334,1.324.09,2.136-.859,2.637-2.089.031,3.808,1.713,6.521,4.612,5.873,4.071-.909,1.836-2.394,2.51-7.73a11.49,11.49,0,0,1,.7-2.848c4.809-2.121,17.089-8.868,19.528-16.017C677.144,165.676,673.928,148.738,658.7,138.795Z"/><path class="m" d="M674.232,164.006a25.474,25.474,0,0,0-1.853-7.376c-.1-.227-.4-.06-.355.164.405,2.19.853,4.357,1.1,6.578a43.654,43.654,0,0,1,.252,6.6,40.406,40.406,0,0,1-2.663,12.969,48.7,48.7,0,0,1-3.2,6.586c-.192.333.276.749.508.429C673.2,182.86,675.273,172.932,674.232,164.006Z"/><path class="w" d="M650.624,210.362c1.372,3.963,7.845,5.389,13.076,1.823s9.034-14.344,5.151-20.208-13.126-3.255-16.642,3.724C649.554,200.971,649.554,207.271,650.624,210.362Z"/><path class="m" d="M665.317,195.984a.393.393,0,0,0-.172-.652c-1.238-.307-2.617.471-3.647,1.092a12.615,12.615,0,0,0-3.053,2.551,11.293,11.293,0,0,0-2.861,7.419c.011.506.8.653.913.123a14.013,14.013,0,0,1,3.042-6.57c.223-.251.476-.469.717-.7.1.123.212.235.311.35.178.206.362.406.537.614a10.853,10.853,0,0,1,.952,1.351c.585.955.939,2.038,1.6,2.948.122.17.469.2.509-.066a5.338,5.338,0,0,0-1.014-3.519,10.759,10.759,0,0,0-1.129-1.5,6.029,6.029,0,0,0-.64-.639c-.106-.088-.211-.176-.32-.256a11.346,11.346,0,0,1,1.177-.845C663.216,197.091,664.491,196.788,665.317,195.984Z"/></g></g></g><g transform="translate(-15)"><text class="ag" transform="translate(430 973)"><tspan x="0" y="0">Yoruba</tspan></text><text class="ag" transform="translate(596 973)"><tspan x="0" y="0">Hausa</tspan></text><text class="ag" transform="translate(757 973)"><tspan x="0" y="0">Igbo</tspan></text><text class="ag" transform="translate(907 973)"><tspan x="0" y="0">Jamaican</tspan></text></g></g></svg>