<svg xmlns="http://www.w3.org/2000/svg" width="23.566" height="21.21" viewBox="0 0 23.566 21.21"><defs><style>.a{fill:#fff;}</style></defs><path class="a" d="M22.032,6.535H18.5V5.357A2.357,2.357,0,0,0,16.14,3H11.427A2.357,2.357,0,0,0,9.07,5.357V6.535H5.535A3.535,3.535,0,0,0,2,10.07v10.6A3.535,3.535,0,0,0,5.535,24.21h16.5a3.535,3.535,0,0,0,3.535-3.535V10.07A3.535,3.535,0,0,0,22.032,6.535Zm-10.6-1.178H16.14V6.535H11.427ZM23.21,20.675a1.178,1.178,0,0,1-1.178,1.178H5.535a1.178,1.178,0,0,1-1.178-1.178v-6.61l5.515,1.9a1.4,1.4,0,0,0,.377,0h7.07A1.4,1.4,0,0,0,17.7,15.9l5.515-1.838Zm0-9.1L17.13,13.6H10.437l-6.08-2.027V10.07A1.178,1.178,0,0,1,5.535,8.892h16.5A1.178,1.178,0,0,1,23.21,10.07Z" transform="translate(-2 -3)"/></svg>