<svg xmlns="http://www.w3.org/2000/svg" width="17.403" height="21.21" viewBox="0 0 17.403 21.21"><defs><style>.a{fill:#fff;}</style></defs><path class="a" d="M16.7,26.21a2.175,2.175,0,0,0,2.175-2.175H14.526A2.175,2.175,0,0,0,16.7,26.21Zm6.526-6.526V14.245c0-3.345-1.778-6.135-4.895-6.874v-.74a1.632,1.632,0,0,0-3.263,0v.74c-3.116.74-4.895,3.53-4.895,6.874v5.438L8,21.859v1.088H25.4V21.859Zm-2.175,1.088h-8.7V14.245c0-2.7,1.648-4.895,4.351-4.895s4.351,2.192,4.351,4.895Z" transform="translate(-8 -5)"/></svg>