<svg xmlns="http://www.w3.org/2000/svg" width="21.029" height="21.029" viewBox="0 0 21.029 21.029"><defs><style>.a{fill:#fff;}</style></defs><path class="a" d="M21.073,16.294H1.956a.956.956,0,1,0,0,1.912H21.073a.956.956,0,1,0,0-1.912Zm0,3.823H1.956a.956.956,0,0,0,0,1.912H21.073a.956.956,0,1,0,0-1.912ZM5.779,6.735a.956.956,0,1,0,.956.956A.956.956,0,0,0,5.779,6.735ZM19.161,1H3.868A2.868,2.868,0,0,0,1,3.868v7.647a2.868,2.868,0,0,0,2.868,2.868H19.161a2.868,2.868,0,0,0,2.868-2.868V3.868A2.868,2.868,0,0,0,19.161,1Zm.956,10.514a.956.956,0,0,1-.956.956H3.868a.956.956,0,0,1-.956-.956V3.868a.956.956,0,0,1,.956-.956H19.161a.956.956,0,0,1,.956.956Zm-8.6-6.691a2.868,2.868,0,1,0,2.868,2.868A2.868,2.868,0,0,0,11.514,4.823Zm0,3.823a.956.956,0,1,1,.956-.956A.956.956,0,0,1,11.514,8.647ZM17.25,6.735a.956.956,0,1,0,.956.956A.956.956,0,0,0,17.25,6.735Z" transform="translate(-1 -1)"/></svg>