<svg xmlns="http://www.w3.org/2000/svg" width="28.952" height="29.612" viewBox="0 0 28.952 29.612"><defs><style>.a{fill:none;stroke:#fbfbfb;stroke-linecap:round;stroke-linejoin:round;stroke-width:2px;}</style></defs><path class="a" d="M61.811,51.7a4.129,4.129,0,1,0,3.7,3.7A4.129,4.129,0,0,0,61.811,51.7Zm9.942,4.109a9.958,9.958,0,0,1-.1,1.341l2.917,2.288a.7.7,0,0,1,.158.887L71.969,65.1a.7.7,0,0,1-.848.3l-2.9-1.166a1.039,1.039,0,0,0-.979.113,10.611,10.611,0,0,1-1.39.809,1.028,1.028,0,0,0-.569.783l-.434,3.09a.715.715,0,0,1-.689.592H58.646a.717.717,0,0,1-.69-.572l-.434-3.085a1.037,1.037,0,0,0-.581-.788,10.018,10.018,0,0,1-1.384-.811,1.032,1.032,0,0,0-.975-.11l-2.9,1.166a.7.7,0,0,1-.848-.3L48.08,60.341a.7.7,0,0,1,.158-.887L50.7,57.519a1.035,1.035,0,0,0,.387-.908c-.023-.269-.037-.537-.037-.806s.014-.534.037-.8a1.032,1.032,0,0,0-.392-.9l-2.464-1.935a.7.7,0,0,1-.153-.883l2.759-4.774a.7.7,0,0,1,.848-.3l2.9,1.166a1.039,1.039,0,0,0,.979-.113,10.611,10.611,0,0,1,1.39-.809,1.028,1.028,0,0,0,.569-.783l.434-3.09A.715.715,0,0,1,58.646,42h5.519a.717.717,0,0,1,.69.572l.434,3.085a1.037,1.037,0,0,0,.581.788,10.019,10.019,0,0,1,1.384.811,1.032,1.032,0,0,0,.975.11l2.9-1.166a.7.7,0,0,1,.848.3l2.759,4.774a.7.7,0,0,1-.158.887l-2.465,1.935a1.035,1.035,0,0,0-.39.908C71.738,55.269,71.752,55.537,71.752,55.806Z" transform="translate(-46.929 -41)"/></svg>