<svg xmlns="http://www.w3.org/2000/svg" width="26.891" height="26.891" viewBox="0 0 26.891 26.891"><defs><style>.a{fill:#fff;}</style></defs><path class="a" d="M25.706,14.3a1.256,1.256,0,0,1-.818-.321L13.433,2.788,1.978,13.979A1.191,1.191,0,0,1,.312,13.95a1.191,1.191,0,0,1,.029-1.666L12.615.3a1.183,1.183,0,0,1,1.636,0L26.524,12.284a1.191,1.191,0,0,1,.029,1.666A1.22,1.22,0,0,1,25.706,14.3ZM23.134,25.7V14.271a1.169,1.169,0,0,0-2.338,0V24.528H17.144V18.275A1.559,1.559,0,0,0,15.6,16.726H11.27a1.559,1.559,0,0,0-1.549,1.549v6.253H6.069V14.271a1.169,1.169,0,0,0-2.338,0V25.7A1.172,1.172,0,0,0,4.9,26.866h5.99A1.172,1.172,0,0,0,12.059,25.7V19.064h2.776V25.7A1.172,1.172,0,0,0,16,26.866h5.99A1.148,1.148,0,0,0,23.134,25.7Z" transform="translate(0.013 0.025)"/></svg>